<?xml version="1.0" encoding="UTF-8" standalone="no"?>
<!-- Created with Inkscape (http://www.inkscape.org/) -->

<svg
   xmlns:dc="http://purl.org/dc/elements/1.1/"
   xmlns:cc="http://creativecommons.org/ns#"
   xmlns:rdf="http://www.w3.org/1999/02/22-rdf-syntax-ns#"
   xmlns:svg="http://www.w3.org/2000/svg"
   xmlns="http://www.w3.org/2000/svg"
   xmlns:sodipodi="http://sodipodi.sourceforge.net/DTD/sodipodi-0.dtd"
   xmlns:inkscape="http://www.inkscape.org/namespaces/inkscape"
   width="200"
   height="200"
   id="svg3804"
   version="1.1"
   inkscape:version="0.48.1 r9760"
   sodipodi:docname="New document 4">
  <defs
     id="defs3806">
    <inkscape:path-effect
       effect="spiro"
       id="path-effect3859"
       is_visible="true" />
    <inkscape:path-effect
       effect="spiro"
       id="path-effect6410"
       is_visible="true" />
  </defs>
  <sodipodi:namedview
     id="base"
     pagecolor="#ffffff"
     bordercolor="#666666"
     borderopacity="1.0"
     inkscape:pageopacity="0.0"
     inkscape:pageshadow="2"
     inkscape:zoom="1"
     inkscape:cx="69.714286"
     inkscape:cy="85.428571"
     inkscape:document-units="px"
     inkscape:current-layer="layer1"
     showgrid="false"
     inkscape:window-width="874"
     inkscape:window-height="766"
     inkscape:window-x="0"
     inkscape:window-y="26"
     inkscape:window-maximized="0" />
  <metadata
     id="metadata3809">
    <rdf:RDF>
      <cc:Work
         rdf:about="">
        <dc:format>image/svg+xml</dc:format>
        <dc:type
           rdf:resource="http://purl.org/dc/dcmitype/StillImage" />
        <dc:title></dc:title>
      </cc:Work>
    </rdf:RDF>
  </metadata>
  <g
     inkscape:label="Layer 1"
     inkscape:groupmode="layer"
     id="layer1"
     transform="translate(0,-852.36218)">
    <path
       style="fill:#57a8b3;fill-opacity:1;stroke:none"
       d="m 72.764423,901.34935 0,12.23465 6.192003,11.34917 -10.042918,45.15919 c -2.268274,0.1389 -4.556719,-0.0561 -6.768793,-0.57675 -4.239848,-0.99795 -8.186175,-3.21217 -11.247388,-6.31075 2.322386,2.55832 5.169363,4.63834 8.31255,6.07321 6.973645,3.18348 14.997145,3.07714 22.596566,2.06964 8.786957,-1.16493 17.465205,-3.4532 26.328727,-3.52857 5.83112,-0.0496 11.66935,0.87163 17.2019,2.71428 l -10.12775,-45.60025 6.17505,-11.34917 0,-12.23465 -10.9043,0 0,6.55602 -7.80743,0 0,-6.55602 -11.878881,0 0,6.55602 -7.96284,0 0,-6.55602 -10.066496,0 m 24.818902,31.98118 c 0.406445,-0.002 0.814868,0.0791 1.182885,0.25159 0.368016,0.17253 0.692671,0.43701 0.934373,0.76378 0.241702,0.32678 0.397967,0.71247 0.478187,1.11093 0.0802,0.39846 0.0849,0.80774 0.0849,1.21419 l 0,7.56761 -5.370698,0 0.02692,-7.56761 c 0.0014,-0.40444 0.0075,-0.81161 0.08788,-1.20799 0.08036,-0.39637 0.23551,-0.78008 0.474984,-1.106 0.239474,-0.32592 0.560868,-0.59076 0.925742,-0.76523 0.364874,-0.17446 0.770352,-0.25913 1.174785,-0.26127"
       id="path3843"
       inkscape:connector-curvature="0"
       sodipodi:nodetypes="ccccscssscccccccccccccsccccs"
       inkscape:path-effect="#path-effect6410"
       inkscape:original-d="m 72.764423,901.34935 0,12.23465 6.192003,11.34917 -10.042918,45.15919 c 0,0 -4.240874,0.2496 -6.768793,-0.57675 -3.518132,-1.15011 -11.247388,-6.31075 -11.247388,-6.31075 0,0 1.600042,2.7716 8.31255,6.07321 13.126643,6.45646 20.317855,2.38103 22.596566,2.06964 7.351335,-1.00445 18.909087,-3.53578 26.328727,-3.52857 7.3683,0.008 17.2019,2.71428 17.2019,2.71428 l -10.12775,-45.60025 6.17505,-11.34917 0,-12.23465 -10.9043,0 0,6.55602 -7.80743,0 0,-6.55602 -11.878881,0 0,6.55602 -7.96284,0 0,-6.55602 z m 24.818902,31.98118 c 1.888091,-0.10891 2.680385,1.93256 2.680385,3.34049 l 0,7.56761 -5.370698,0 0.02692,-7.56761 c -0.174324,-3.06148 -0.06127,-3.1833 2.663387,-3.34049 z" />
    <text
       xml:space="preserve"
       style="font-size:21.7144165px;font-style:normal;font-variant:normal;font-weight:bold;font-stretch:normal;text-align:start;line-height:125%;letter-spacing:0px;word-spacing:0px;writing-mode:lr-tb;text-anchor:start;fill:#000000;fill-opacity:1;stroke:none;font-family:Overpass;-inkscape-font-specification:Overpass Bold"
       x="36.593925"
       y="1003.1099"
       id="text3845"
       sodipodi:linespacing="125%"><tspan
         sodipodi:role="line"
         id="tspan3847"
         x="36.593925"
         y="1003.1099"
         style="letter-spacing:4.04375505">KATELLO</tspan></text>
    <path
       style="fill:#57a8b3;fill-opacity:1;stroke:none"
       d="m 120.58219,942.0769 c 2.94742,-6.06143 7.50952,-11.32853 13.08826,-15.11084 5.57874,-3.78231 12.16045,-6.07057 18.88235,-6.56482 1.58599,-0.11661 3.17917,-0.13536 4.76747,-0.0561 -5.46752,0.31496 -10.86339,1.82047 -15.70419,4.38166 -6.99709,3.70205 -12.79374,9.632 -16.33579,16.71143 l 35.93306,30.86541 -40.63116,-30.22674"
       id="path3849"
       inkscape:path-effect="#path-effect3859"
       inkscape:original-d="m 120.58219,942.0769 c 0,0 24.60321,-17.99195 31.97061,-21.67566 5.95021,-2.78274 -1.0489,-0.46894 4.76747,-0.0561 0,0 -9.69394,0.89184 -15.70419,4.38166 -1.50255,0.87245 -12.22043,12.94937 -16.33579,16.71143 7.62035,7.1689 20.51626,24.58332 35.93306,30.86541 -13.40557,-8.05807 -29.76256,-19.0701 -40.63116,-30.22674 z"
       inkscape:connector-curvature="0"
       sodipodi:nodetypes="cccsccc" />
    <path
       sodipodi:type="arc"
       style="color:#000000;fill:#57a8b3;fill-opacity:1;fill-rule:nonzero;stroke:none;stroke-width:2.00396276;marker:none;visibility:visible;display:inline;overflow:visible;enable-background:accumulate"
       id="path3851"
       sodipodi:cx="450.89285"
       sodipodi:cy="810.04077"
       sodipodi:rx="11.964286"
       sodipodi:ry="6.25"
       d="m 462.85714,810.04077 a 11.964286,6.25 0 1 1 -23.92857,0 11.964286,6.25 0 1 1 23.92857,0 z"
       transform="matrix(0.32193745,0.0600225,-0.13076036,0.60987039,123.99307,397.89524)"
       inkscape:transform-center-x="-3.9879366"
       inkscape:transform-center-y="-5.791784" />
    <text
       sodipodi:linespacing="125%"
       id="text3863"
       y="992.19635"
       x="161.91006"
       style="font-size:6.57101488px;font-style:normal;font-variant:normal;font-weight:bold;font-stretch:normal;text-align:start;line-height:125%;letter-spacing:0px;word-spacing:0px;writing-mode:lr-tb;text-anchor:start;fill:#000000;fill-opacity:1;stroke:none;font-family:Overpass;-inkscape-font-specification:Overpass Bold"
       xml:space="preserve"><tspan
         y="992.19635"
         x="161.91006"
         id="tspan3865"
         sodipodi:role="line">™</tspan></text>
  </g>
</svg>
